~~~~~~~~~~~~~~~~~~~~~~~~~~~~~~~~~~~~~~~~~~~~~~~~~~~~~~~~~~~~~~~~~~~
Title: 12 Rounds[2009]
~~~~~~~~~~~~~~~~~~~~~~~~~~~~~~~~~~~~~~~~~~~~~~~~~~~~~~~~~~~~~~~~~~~
~~~~~~~~~~~~~~~~~~~~~~~~~~~~~~~~~~~~~~~~~~~~~~~~~~~~~~~~~~~~~~~~~~~
Release Notes

Genre: Action | Crime | Thriller

Rated: PG-13 for intense sequences of violence and action.

Movie Information: http://www.imdb.com/title/tt1160368/

Plot: Detective Danny Fisher discovers his girlfriend has been kidnapped
by a ex-con tied to Fisher's past, and he'll have to successfully
complete 12 challenges in order to secure her safe release.

Format : AVI
Format/Info : Audio Video Interleave
File size : 1.18 GiB
Duration : 1h 47mn
Overall bit rate : 1 559 Kbps
Movie name : 12 Rounds[2009]DvDRip[Eng]-Uvall
Writing application : Lavf52.33.0

Video
Format : MPEG-4 Visual
Format profile : Simple@L3
Format settings, BVOP : No
Format settings, QPel : No
Format settings, GMC : No warppoints
Format settings, Matrix : Default (H.263)
Codec ID : XVID
Codec ID/Hint : XviD
Duration : 1h 47mn
Bit rate : 1 100 Kbps
Width : 720 pixels
Height : 358 pixels
Display aspect ratio : 2.011
Frame rate : 23.976 fps
Resolution : 24 bits
Colorimetry : 4:2:0
Scan type : Progressive
Bits/(Pixel*Frame) : 0.178
Stream size : 849 MiB (71%)
Writing library : XviD 1.2.1 (UTC 2008-12-04)

Audio
Format : AC-3
Format/Info : Audio Coding 3
Codec ID : 2000
Duration : 1h 47mn
Bit rate mode : Constant
Bit rate : 448 Kbps
Channel(s) : 6 channels
Channel positions : Front: L C R, Surround: L R, LFE
Sampling rate : 48.0 KHz
Stream size : 346 MiB (29%)
Alignment : Aligned on interleaves
Interleave, duration : 32 ms (0.77 video frame)
~~~~~~~~~~~~~~~~~~~~~~~~~~~~~~~~~~~~~~~~~~~~~~~~~~~~~~~~~~~~~~~~~~~
~~~~~~~~~~~~~~~~~~~~~~~~~~~~~~~~~~~~~~~~~~~~~~~~~~~~~~~~~~~~~~~~~~~
Posted By: Uvall
~~~~~~~~~~~~~~~~~~~~~~~~~~~~~~~~~~~~~~~~~~~~~~~~~~~~~~~~~~~~~~~~~~~